<svg width="40" height="40" fill="none" xmlns="http://www.w3.org/2000/svg"><path d="M37.7428 25.8505H2.2572C.9974 25.8505 0 26.8635 0 28.0285v1.7729c0 1.165.9974 2.1274 2.2572 2.1274h.525v.5066c0 2.7859 2.3622 5.0146 5.1968 5.0146h24.042c2.8871 0 5.1968-2.2794 5.1968-5.0146v-.5066h.525c1.2073 0 2.2572-.9624 2.2572-2.178v-1.7729c0-1.1144-.9974-2.1274-2.2572-2.1274Zm-2.0473 6.5849c0 1.9248-1.6273 3.495-3.622 3.495H7.9265c-1.9947 0-3.622-1.5702-3.622-3.495v-.5066h31.391v.5066Zm2.7297-2.6846c0 .3545-.315.6584-.6824.6584H2.2572c-.3674 0-.6824-.3039-.6824-.6584v-1.7729c0-.3039.315-.6078.6824-.6078h35.5381c.3674 0 .6824.3039.6824.6584v1.7223h-.0525ZM8.504 21.7473l2.8346 2.0262 2.8871-2.0262 2.8872 2.0262L20 21.7473l2.8347 2.0262 2.8871-2.0262 2.8871 2.0262 2.8872-2.0262 2.8871 2.0262 3.3071-2.3807-.8924-1.2157-2.4147 1.6715-2.8871-2.0261-2.8872 2.0261-2.8871-2.0261-2.8871 2.0261L20 19.8225l-2.8871 2.0261-2.8872-2.0261-2.8871 2.0261-2.8346-2.0261-2.8872 2.0261-2.4147-1.6715-.9449 1.2157 3.3596 2.3807 2.8872-2.0262ZM37.2179 18.3032c0-.3039.0525-1.317 0-1.5196C36.8504 8.8816 29.2913 2.5501 20 2.5501S3.0971 8.8817 2.7297 16.7835v1.5196h34.4882ZM20 4.0696c8.399 0 15.3281 5.6732 15.6431 12.714H4.3045C4.6719 9.7428 11.601 4.0696 20 4.0696Z" fill="#81B3D2"/><path d="M20 11.1611c.5798 0 1.0499-.4535 1.0499-1.013 0-.5595-.4701-1.013-1.0499-1.013-.5798 0-1.0499.4535-1.0499 1.013 0 .5595.4701 1.013 1.0499 1.013ZM15.8005 8.6787c.5798 0 1.0499-.4535 1.0499-1.013 0-.5595-.4701-1.0131-1.0499-1.0131-.5798 0-1.0499.4536-1.0499 1.013 0 .5595.4701 1.0131 1.0499 1.0131ZM24.1995 8.6787c.5798 0 1.0498-.4535 1.0498-1.013 0-.5595-.47-1.0131-1.0498-1.0131-.5799 0-1.0499.4536-1.0499 1.013 0 .5595.47 1.0131 1.0499 1.0131Z" fill="#81B3D2"/></svg>